<?xml version="1.0" encoding="iso-8859-1"?>
<!-- Generator: Adobe Illustrator 25.0.0, SVG Export Plug-In . SVG Version: 6.00 Build 0)  -->
<svg version="1.1" baseProfile="basic" id="Layer_1"
	 xmlns="http://www.w3.org/2000/svg" xmlns:xlink="http://www.w3.org/1999/xlink" x="0px" y="0px" viewBox="0 0 50 50"
	 xml:space="preserve">
<path d="M38.854,11.146c0.195,0.195,0.195,0.512,0,0.707l-27,27C11.756,38.951,11.628,39,11.5,39s-0.256-0.049-0.354-0.146
	c-0.195-0.195-0.195-0.512,0-0.707l27-27C38.342,10.951,38.658,10.951,38.854,11.146z"/>
<path d="M38.854,38.854c-0.195,0.195-0.512,0.195-0.707,0l-27-27C11.049,11.756,11,11.628,11,11.5s0.049-0.256,0.146-0.354
	c0.195-0.195,0.512-0.195,0.707,0l27,27C39.049,38.342,39.049,38.658,38.854,38.854z"/>
</svg>